<svg xmlns="http://www.w3.org/2000/svg" width="24" height="24" fill="none" viewBox="0 0 24 24" id="stackoverflow"><rect width="24" height="24" fill="url(#paint0_linear_302_4644)" rx="8"></rect><path fill="#fff" fill-rule="evenodd" d="M13.4679 4.84233L17.0909 9.91455L18.2702 9.07223L14.6471 4L13.4679 4.84233ZM16.1221 11.4926L11.0498 7.14499L11.993 6.04467L17.0652 10.3923L16.1221 11.4926ZM9.0391 10.5112L15.1982 13.4097L15.8153 12.0983L9.65616 9.19994L9.0391 10.5112ZM14.625 15.2729L8.10353 13.8237L8.41791 12.409L14.9393 13.8582L14.625 15.2729ZM6.44921 14.2032H5V20H18.0429V14.2032H16.5936V18.5508H6.44921V14.2032ZM8.26071 17.1016H14.7821V15.6524H8.26071V17.1016Z" clip-rule="evenodd"></path><defs><linearGradient id="paint0_linear_302_4644" x1="0" x2="24" y1="12" y2="12" gradientUnits="userSpaceOnUse"><stop stop-color="#ED6D6B"></stop><stop offset="1" stop-color="#F0B076"></stop></linearGradient></defs></svg>